<svg id="Layer_1" data-name="Layer 1" xmlns="http://www.w3.org/2000/svg" viewBox="0 0 492.96 478.01">
  <g id="table6">
    <polygon points="387.29 17.74 17.75 17.74 17.75 460.27 460.27 460.27 460.27 361.42 477.52 361.42 477.52 477.51 0.5 477.51 0.5 0.5 477.52 0.5 477.52 17.74 395.91 17.74 395.91 306.11 492.46 306.11 492.46 315.59 387.29 315.59 387.29 17.74" fill="none" stroke="#231f20" stroke-miterlimit="10"/>
    <rect x="17.75" y="17.74" width="122.98" height="122.99" fill="none" stroke="#231f20" stroke-miterlimit="10"/>
  </g>
  <g id="table5">
    <rect x="61.68" y="405.65" width="54.6" height="54.6" fill="none" stroke="#231f20" stroke-miterlimit="10"/>
    <g>
      <rect x="164.67" y="504.76" width="43.94" height="37.27" rx="12" transform="translate(-376.66 619.59) rotate(-90)" fill="none" stroke="#231f20" stroke-miterlimit="10"/>
      <path d="M166.58,508.1h30.81a2.63,2.63,0,0,1,2.63,2.63v18.43a9.53,9.53,0,0,1-9.53,9.53H176.11a9.53,9.53,0,0,1-9.53-9.53V508.1A0,0,0,0,1,166.58,508.1Z" transform="translate(-380 616.25) rotate(-90)" fill="none" stroke="#231f20" stroke-miterlimit="10"/>
    </g>
  </g>
  <g id="table4">
    <rect x="61.68" y="326.36" width="54.6" height="54.6" fill="none" stroke="#231f20" stroke-miterlimit="10"/>
    <g>
      <rect x="164.67" y="424.74" width="43.94" height="37.27" rx="12" transform="translate(-296.64 539.57) rotate(-90)" fill="none" stroke="#231f20" stroke-miterlimit="10"/>
      <path d="M166.58,428.08h30.81a2.63,2.63,0,0,1,2.63,2.63v18.43a9.53,9.53,0,0,1-9.53,9.53H176.11a9.53,9.53,0,0,1-9.53-9.53V428.08A0,0,0,0,1,166.58,428.08Z" transform="translate(-299.98 536.23) rotate(-90)" fill="none" stroke="#231f20" stroke-miterlimit="10"/>
    </g>
  </g>
  <g id="table3">
    <rect x="61.68" y="243.89" width="54.6" height="54.6" fill="none" stroke="#231f20" stroke-miterlimit="10"/>
    <g>
      <rect x="161.33" y="343" width="43.94" height="37.27" rx="12" transform="translate(-218.24 454.49) rotate(-90)" fill="none" stroke="#231f20" stroke-miterlimit="10"/>
      <path d="M163.24,346.34h30.81a2.63,2.63,0,0,1,2.63,2.63V367.4a9.53,9.53,0,0,1-9.53,9.53H172.77a9.53,9.53,0,0,1-9.53-9.53V346.34A0,0,0,0,1,163.24,346.34Z" transform="translate(-221.58 451.15) rotate(-90)" fill="none" stroke="#231f20" stroke-miterlimit="10"/>
    </g>
  </g>
  <g id="table2">
    <rect x="61.68" y="161.42" width="54.6" height="54.6" fill="none" stroke="#231f20" stroke-miterlimit="10"/>
    <g>
      <rect x="161.33" y="260.53" width="43.94" height="37.27" rx="12" transform="translate(-135.77 372.02) rotate(-90)" fill="none" stroke="#231f20" stroke-miterlimit="10"/>
      <path d="M163.24,263.87h30.81a2.63,2.63,0,0,1,2.63,2.63v18.43a9.53,9.53,0,0,1-9.53,9.53H172.77a9.53,9.53,0,0,1-9.53-9.53V263.87A0,0,0,0,1,163.24,263.87Z" transform="translate(-139.11 368.68) rotate(-90)" fill="none" stroke="#231f20" stroke-miterlimit="10"/>
    </g>
  </g>
  <g id="table1">
    <path d="M346.36,420l-.06,0V420Z" transform="translate(-39.91 -90.44)" fill="none" stroke="#231f20" stroke-miterlimit="10"/>
    <path d="M350.21,421.89l-.12.08-.13.1c0-.1,0-.2,0-.3Z" transform="translate(-39.91 -90.44)" fill="none" stroke="#231f20" stroke-miterlimit="10"/>
    <path d="M367.46,447.5c-.29-.07-.58-.16-.87-.26l.77-.51C367.39,447,367.43,447.24,367.46,447.5Z" transform="translate(-39.91 -90.44)" fill="none" stroke="#231f20" stroke-miterlimit="10"/>
    <path d="M367.3,457.15c0,.19-.07.39-.1.58l-.43-.28-.15-.08A6,6,0,0,1,367.3,457.15Z" transform="translate(-39.91 -90.44)" fill="none" stroke="#231f20" stroke-miterlimit="10"/>
    <g>
      <path d="M351,494.44v9.63a12,12,0,0,1-12,12H323.39a12,12,0,0,1-12-12v-9.63a12,12,0,0,1,4.74-9.54A12.32,12.32,0,0,1,319.7,483a34.22,34.22,0,0,0,25.22,1,10.5,10.5,0,0,1,1.37.91A12,12,0,0,1,351,494.44Z" transform="translate(-39.91 -90.44)" fill="none" stroke="#231f20" stroke-miterlimit="10"/>
      <path d="M346.3,485.07v15.45a9.55,9.55,0,0,1-9.52,9.52H325.66a9.56,9.56,0,0,1-9.53-9.52V482.44h2.31c.41.2.83.4,1.26.58a34.22,34.22,0,0,0,25.22,1c.32-.11.63-.22.95-.35a2.59,2.59,0,0,1,.42,1.26A1,1,0,0,1,346.3,485.07Z" transform="translate(-39.91 -90.44)" fill="none" stroke="#231f20" stroke-miterlimit="10"/>
    </g>
    <g>
      <path d="M351,400.93v9.62a12,12,0,0,1-4.68,9.49l-.06,0V420A34.29,34.29,0,0,0,318,421.26a11.71,11.71,0,0,1-1.87-1.17,12,12,0,0,1-4.75-9.54v-9.62a12,12,0,0,1,12-12H339A12,12,0,0,1,351,400.93Z" transform="translate(-39.91 -90.44)" fill="none" stroke="#231f20" stroke-miterlimit="10"/>
      <path d="M346.3,404.48V420A34.29,34.29,0,0,0,318,421.26l-1.05.57a2.6,2.6,0,0,1-.82-1.74.86.86,0,0,1,0-.16V404.48a9.55,9.55,0,0,1,9.53-9.52h11.12A9.54,9.54,0,0,1,346.3,404.48Z" transform="translate(-39.91 -90.44)" fill="none" stroke="#231f20" stroke-miterlimit="10"/>
    </g>
    <g>
      <path d="M312.48,482.93a12,12,0,0,1-5.35,9.22l-8,5.3a12,12,0,0,1-16.63-3.4L273.85,481a12,12,0,0,1,3.41-16.62l8-5.3a12.06,12.06,0,0,1,15.24,1.67,34.12,34.12,0,0,0,11.31,17.45A11.71,11.71,0,0,1,312.48,482.93Z" transform="translate(-39.91 -90.44)" fill="none" stroke="#231f20" stroke-miterlimit="10"/>
      <path d="M367.3,457.15a6,6,0,0,0-.68.22l.15.08.43.28a34.27,34.27,0,0,1-16.93,23.84l-1,.52a33,33,0,0,1-3.43,1.55c-.32.13-.63.24-.95.35a34.22,34.22,0,0,1-25.22-1c-.43-.18-.85-.38-1.26-.58a33.32,33.32,0,0,1-5.66-3.53c-.32-.23-.63-.48-.94-.73a34.12,34.12,0,0,1-11.31-17.45c-.06-.2-.12-.41-.17-.62a34.45,34.45,0,0,1-.54-14.15c.05-.3.1-.6.17-.9a34.14,34.14,0,0,1,12-19.89c.69-.56,1.4-1.1,2.14-1.6a31.09,31.09,0,0,1,2.8-1.74l1.05-.57A34.29,34.29,0,0,1,346.3,420v.07l.06,0a33.55,33.55,0,0,1,3.63,1.73c0,.1,0,.2,0,.3l.13-.1.12-.08a34.24,34.24,0,0,1,17.15,24.84l-.77.51c.29.1.58.19.87.26a35,35,0,0,1,.26,4.25A34.32,34.32,0,0,1,367.3,457.15Z" transform="translate(-39.91 -90.44)" fill="none" stroke="#231f20" stroke-miterlimit="10"/>
      <path d="M312.48,482.93l-.14.1-12.89,8.51a9.54,9.54,0,0,1-13.19-2.7l-6.13-9.29a9.54,9.54,0,0,1,2.7-13.19l13-8.6,2.06-1.36,2.44,3.71c.05.21.11.42.17.62a34.12,34.12,0,0,0,11.31,17.45c.31.25.62.5.94.73l.31.48A2.64,2.64,0,0,1,312.48,482.93Z" transform="translate(-39.91 -90.44)" fill="none" stroke="#231f20" stroke-miterlimit="10"/>
    </g>
    <g>
      <path d="M385.18,440.64l-8,5.3a11.9,11.9,0,0,1-9.69,1.56c-.29-.07-.58-.16-.87-.26l.77-.51a34.24,34.24,0,0,0-17.15-24.84l-.12.08-.13.1c0-.1,0-.2,0-.3a12,12,0,0,1,5.32-8.92l8-5.3A12,12,0,0,1,380,411L388.58,424A12,12,0,0,1,385.18,440.64Z" transform="translate(-39.91 -90.44)" fill="none" stroke="#231f20" stroke-miterlimit="10"/>
      <path d="M379.6,438.64l-12.24,8.09a34.24,34.24,0,0,0-17.15-24.84L363,413.46a9.55,9.55,0,0,1,13.2,2.7l6.13,9.29A9.54,9.54,0,0,1,379.6,438.64Z" transform="translate(-39.91 -90.44)" fill="none" stroke="#231f20" stroke-miterlimit="10"/>
    </g>
    <g>
      <path d="M312,425.17a34.14,34.14,0,0,0-12,19.89,11.72,11.72,0,0,1-4.18,2.57,12,12,0,0,1-10.59-1.17l-8.09-5.21a12,12,0,0,1-3.59-16.59L282,411.5a12,12,0,0,1,16.59-3.59l8.09,5.21a12,12,0,0,1,5.45,9.15A11.78,11.78,0,0,1,312,425.17Z" transform="translate(-39.91 -90.44)" fill="none" stroke="#231f20" stroke-miterlimit="10"/>
      <path d="M314.16,423.57c-.74.5-1.45,1-2.14,1.6a34.14,34.14,0,0,0-12,19.89c-.07.3-.12.6-.17.9l-.52.8a2.63,2.63,0,0,1-3.49.87l-.15-.08-13-8.36A9.56,9.56,0,0,1,279.83,426l6-9.35A9.55,9.55,0,0,1,299,413.82l13.12,8.45Z" transform="translate(-39.91 -90.44)" fill="none" stroke="#231f20" stroke-miterlimit="10"/>
    </g>
    <g>
      <path d="M388.9,480.34l-8.47,13.16a12,12,0,0,1-16.59,3.59l-8.09-5.21a12,12,0,0,1-5.45-9.15,7.49,7.49,0,0,1,0-1.16,34.27,34.27,0,0,0,16.93-23.84l-.43-.28-.15-.08a6,6,0,0,1,.68-.22,12,12,0,0,1,9.92,1.39l8.09,5.21A12,12,0,0,1,388.9,480.34Z" transform="translate(-39.91 -90.44)" fill="none" stroke="#231f20" stroke-miterlimit="10"/>
      <path d="M382.61,479l-6,9.35a9.55,9.55,0,0,1-13.16,2.85l-13.12-8.45-1-.64,1-.52a34.27,34.27,0,0,0,16.93-23.84l12.56,8.08A9.57,9.57,0,0,1,382.61,479Z" transform="translate(-39.91 -90.44)" fill="none" stroke="#231f20" stroke-miterlimit="10"/>
    </g>
  </g>
  <g>
    <rect x="-83.99" y="376.86" width="315.48" height="32.18" rx="12" transform="translate(426.79 228.76) rotate(90)" fill="none" stroke="#231f20" stroke-miterlimit="10"/>
    <path d="M-69.1,379.75H219.74a2.63,2.63,0,0,1,2.63,2.63v14.26a9.53,9.53,0,0,1-9.53,9.53H-59.58a9.53,9.53,0,0,1-9.53-9.53V379.75A0,0,0,0,1-69.1,379.75Z" transform="translate(429.68 225.88) rotate(90)" fill="none" stroke="#231f20" stroke-miterlimit="10"/>
  </g>
</svg>
