<svg id="Layer_1" data-name="Layer 1" xmlns="http://www.w3.org/2000/svg" viewBox="0 0 531.96 478.01">
  <g id="outerRim">
    <polygon points="387.29 17.74 17.75 17.74 17.75 460.27 460.27 460.27 460.27 361.42 477.52 361.42 477.52 477.51 0.5 477.51 0.5 0.5 477.52 0.5 477.52 17.74 395.91 17.74 395.91 306.11 492.46 306.11 492.46 315.59 387.29 315.59 387.29 17.74" fill="none" stroke="#231f20" stroke-miterlimit="10"/>
    <rect x="17.75" y="17.74" width="122.98" height="122.99" fill="none" stroke="#231f20" stroke-miterlimit="10"/>
    <g>
      <rect x="-83.99" y="376.86" width="315.48" height="32.18" rx="12" transform="translate(426.79 228.76) rotate(90)" fill="none" stroke="#231f20" stroke-miterlimit="10"/>
      <path d="M-69.1,379.75H219.74a2.63,2.63,0,0,1,2.63,2.63v14.26a9.53,9.53,0,0,1-9.53,9.53H-59.58a9.53,9.53,0,0,1-9.53-9.53V379.75A0,0,0,0,1-69.1,379.75Z" transform="translate(429.68 225.88) rotate(90)" fill="none" stroke="#231f20" stroke-miterlimit="10"/>
    </g>
  </g>
  <g id="t1-s4-w1-a0-k1-lmain-n2">
    <rect x="61.68" y="161.42" width="54.6" height="54.6" fill="none" stroke="#231f20" stroke-miterlimit="10"/>
    <g>
      <rect x="170.2" y="277.39" width="27.44" height="30.17" rx="12" transform="translate(-148.46 385.96) rotate(-90)" fill="none" stroke="#231f20" stroke-miterlimit="10"/>
      <path d="M170.78,280.09H189a2.63,2.63,0,0,1,2.63,2.63v12.61a9.53,9.53,0,0,1-9.53,9.53H180.3a9.53,9.53,0,0,1-9.53-9.53V280.09A0,0,0,0,1,170.78,280.09Z" transform="translate(-151.17 383.25) rotate(-90)" fill="none" stroke="#231f20" stroke-miterlimit="10"/>
    </g>
    <g>
      <rect x="171.03" y="250.65" width="27.44" height="30.17" rx="12" transform="translate(-120.9 360.05) rotate(-90)" fill="none" stroke="#231f20" stroke-miterlimit="10"/>
      <path d="M171.61,253.36h18.25a2.63,2.63,0,0,1,2.63,2.63v12.61a9.53,9.53,0,0,1-9.53,9.53h-1.83a9.53,9.53,0,0,1-9.53-9.53V253.36A0,0,0,0,1,171.61,253.36Z" transform="translate(-123.6 357.34) rotate(-90)" fill="none" stroke="#231f20" stroke-miterlimit="10"/>
    </g>
    <path d="M130.43,266.71a2.39,2.39,0,0,1,1.42.34.41.41,0,0,1,0,.12v.05l-3.16,7.49c-2.45,5.76-3.7,8.71-3.77,8.8a2.21,2.21,0,0,1-1.42.34h-.14a2.42,2.42,0,0,1-1.47-.34.26.26,0,0,1-.05-.12c0-.07.25-.57.63-1.48,3.46-8.14,5.21-12.29,5.28-12.46a9.73,9.73,0,0,0,.48-1.15,9.22,9.22,0,0,0-1.8,1.2,6.45,6.45,0,0,0-1.18,1.08,8.82,8.82,0,0,0-1.34,1.77.49.49,0,0,1-.48.32c-.36-.05-.53-.24-.53-.53a5.82,5.82,0,0,1,1.27-1.95,17.38,17.38,0,0,1,1.27-1.25c1.76-1.48,3.34-2.23,4.78-2.23Z" transform="translate(-39.91 -90.44)" fill="#231f20"/>
  </g>
  <g id="t2-s4-w1-a0-k1-lmain-n1_3" data-name="t2-s4-w1-a0-k1-lmain-n1,3">
    <rect x="61.68" y="243.89" width="54.6" height="54.6" fill="none" stroke="#231f20" stroke-miterlimit="10"/>
    <rect x="170.2" y="359.92" width="27.44" height="30.17" rx="12" transform="translate(-230.99 468.48) rotate(-90)" fill="none" stroke="#231f20" stroke-miterlimit="10"/>
    <path d="M170.78,362.62H189a2.63,2.63,0,0,1,2.63,2.63v12.61a9.53,9.53,0,0,1-9.53,9.53H180.3a9.53,9.53,0,0,1-9.53-9.53V362.62A0,0,0,0,1,170.78,362.62Z" transform="translate(-233.69 465.78) rotate(-90)" fill="none" stroke="#231f20" stroke-miterlimit="10"/>
    <rect x="171.03" y="333.18" width="27.44" height="30.17" rx="12" transform="translate(-203.42 442.57) rotate(-90)" fill="none" stroke="#231f20" stroke-miterlimit="10"/>
    <path d="M171.61,335.88h18.25a2.63,2.63,0,0,1,2.63,2.63v12.61a9.53,9.53,0,0,1-9.53,9.53h-1.83a9.53,9.53,0,0,1-9.53-9.53V335.88A0,0,0,0,1,171.61,335.88Z" transform="translate(-206.13 439.87) rotate(-90)" fill="none" stroke="#231f20" stroke-miterlimit="10"/>
    <path d="M137.77,350.22a2.72,2.72,0,0,1,.81,1.85v.07a.07.07,0,0,0,0,.05s0,0,0,.05v.09A4.8,4.8,0,0,1,137.5,355a14.58,14.58,0,0,1-1.27,1.37,23.56,23.56,0,0,1-2.28,1.87,45.39,45.39,0,0,1-6.29,3.75c-.74.36-1.39.67-1.92.89v0c.46.1,1.37.34,2.71.7a12.28,12.28,0,0,0,2.38.33,4.38,4.38,0,0,0,2-.6,3,3,0,0,0,.69-.57c.72-.87,1.23-1.3,1.52-1.3.07,0,.09.07.12.17a4.08,4.08,0,0,1-1.13,1.82,5.88,5.88,0,0,1-1.42,1.13,7,7,0,0,1-1,.58,9.46,9.46,0,0,1-3.84.91h-.27a11.47,11.47,0,0,1-3.48-.75,7.87,7.87,0,0,0-2-.31,2.55,2.55,0,0,0-1.66.6,2.46,2.46,0,0,1-1,.46c-.15,0-.24-.05-.24-.12,0-.34.72-1,2.11-2a19.84,19.84,0,0,1,4.25-1.94,22,22,0,0,0,3.55-1.8,23.72,23.72,0,0,0,2.93-2.09,12.56,12.56,0,0,0,1.68-1.71,5.24,5.24,0,0,0,1.2-3.26,3.4,3.4,0,0,0-1-2.57,2.45,2.45,0,0,0-1.61-.58h-.07a3.74,3.74,0,0,0-2.31,1,6,6,0,0,0-1,1.1,5.44,5.44,0,0,0-1,2.09,3,3,0,0,0,0,.41,1.1,1.1,0,0,0,.69,1.15,1.55,1.55,0,0,0,.6.09,4.92,4.92,0,0,0,.58-.07s.07,0,.07.05v.07c0,.2-.36.34-1.13.44l-.45,0A2.72,2.72,0,0,1,125.6,355a2.55,2.55,0,0,1-.15-.86,4.07,4.07,0,0,1,1.42-2.81,9.3,9.3,0,0,1,1.49-1.13,11.49,11.49,0,0,1,5.54-1.34A5.41,5.41,0,0,1,137.77,350.22Z" transform="translate(-39.91 -90.44)" fill="#231f20"/>
  </g>
  <g id="t3-s4-w1-a0-k0-lmain-n2_4" data-name="t3-s4-w1-a0-k0-lmain-n2,4">
    <rect x="61.68" y="326.36" width="54.6" height="54.6" fill="none" stroke="#231f20" stroke-miterlimit="10"/>
    <rect x="170.2" y="442.44" width="27.44" height="30.17" rx="12" transform="translate(-313.52 551.01) rotate(-90)" fill="none" stroke="#231f20" stroke-miterlimit="10"/>
    <path d="M170.78,445.15H189a2.63,2.63,0,0,1,2.63,2.63v12.61a9.53,9.53,0,0,1-9.53,9.53H180.3a9.53,9.53,0,0,1-9.53-9.53V445.15A0,0,0,0,1,170.78,445.15Z" transform="translate(-316.22 548.31) rotate(-90)" fill="none" stroke="#231f20" stroke-miterlimit="10"/>
    <rect x="171.03" y="415.7" width="27.44" height="30.17" rx="12" transform="translate(-285.95 525.1) rotate(-90)" fill="none" stroke="#231f20" stroke-miterlimit="10"/>
    <path d="M171.61,418.41h18.25a2.63,2.63,0,0,1,2.63,2.63v12.61a9.53,9.53,0,0,1-9.53,9.53h-1.83a9.53,9.53,0,0,1-9.53-9.53V418.41A0,0,0,0,1,171.61,418.41Z" transform="translate(-288.65 522.4) rotate(-90)" fill="none" stroke="#231f20" stroke-miterlimit="10"/>
    <path d="M135.55,436.93a5.31,5.31,0,0,1,1.1,3.21,4.27,4.27,0,0,1-1.18,3.05,5.17,5.17,0,0,1-1.24.91,8.77,8.77,0,0,1-1.42.48l-.22.05a3.42,3.42,0,0,1,1.32,2.64,3.72,3.72,0,0,1-.79,2.16,5.59,5.59,0,0,1-1.27,1.25,8,8,0,0,1-1.37.77,8.3,8.3,0,0,1-1.68.43,12.64,12.64,0,0,1-2,.14h-.46a5.66,5.66,0,0,1-4-1.44,3.87,3.87,0,0,1-1.23-2.76,2.4,2.4,0,0,1,1-2,3.74,3.74,0,0,1,2.09-.62h.14a2.07,2.07,0,0,1,1.54.55l0,.1v0c0,.15-.26.29-.76.44a1.52,1.52,0,0,0-.75.88,3,3,0,0,0-.14.89v.17a3.52,3.52,0,0,0,.55,1.85,2.36,2.36,0,0,0,2,1,4.14,4.14,0,0,0,2.57-1,3.46,3.46,0,0,0,1.15-2.48,3.51,3.51,0,0,0-1.89-3c-.24-.12-.34-.24-.34-.39v-.07c0-.14.1-.26.34-.36a.58.58,0,0,1,.26-.05h0c.1,0,.39.05.89.12a2,2,0,0,0,.39,0c1.34,0,2.32-.82,3-2.45a5.48,5.48,0,0,0,.26-1.66,5.19,5.19,0,0,0-1-3,2.08,2.08,0,0,0-1.58-.91h-.12a3,3,0,0,0-2.14,1.18,3.37,3.37,0,0,0-.84,2.09v.12a2.48,2.48,0,0,0,.56,1.46.93.93,0,0,0,.5.22.55.55,0,0,1,.36.14v0c0,.15-.55.24-1.63.32a2.55,2.55,0,0,1-2.52-1.3,1.86,1.86,0,0,1-.19-.89v0a3.75,3.75,0,0,1,1.65-2.86,8,8,0,0,1,4.87-1.42A5.08,5.08,0,0,1,135.55,436.93Z" transform="translate(-39.91 -90.44)" fill="#231f20"/>
  </g>
  <g id="t4-s4-w1-a0-k0-lmain-n3">
    <rect x="61.68" y="405.65" width="54.6" height="54.6" fill="none" stroke="#231f20" stroke-miterlimit="10"/>
    <rect x="168.96" y="521.47" width="27.44" height="30.17" rx="12" transform="translate(-393.79 628.79) rotate(-90)" fill="none" stroke="#231f20" stroke-miterlimit="10"/>
    <path d="M169.53,524.17h18.25a2.63,2.63,0,0,1,2.63,2.63v12.61a9.53,9.53,0,0,1-9.53,9.53h-1.83a9.53,9.53,0,0,1-9.53-9.53V524.17A0,0,0,0,1,169.53,524.17Z" transform="translate(-396.49 626.09) rotate(-90)" fill="none" stroke="#231f20" stroke-miterlimit="10"/>
    <rect x="169.79" y="494.73" width="27.44" height="30.17" rx="12" transform="translate(-366.22 602.88) rotate(-90)" fill="none" stroke="#231f20" stroke-miterlimit="10"/>
    <path d="M170.36,497.43h18.25a2.63,2.63,0,0,1,2.63,2.63v12.61a9.53,9.53,0,0,1-9.53,9.53h-1.83a9.53,9.53,0,0,1-9.53-9.53V497.43A0,0,0,0,1,170.36,497.43Z" transform="translate(-368.92 600.18) rotate(-90)" fill="none" stroke="#231f20" stroke-miterlimit="10"/>
    <path d="M126.29,526.9a.19.19,0,0,1,0-.14l1.77-4.25h-6.17c-.16,0-.26-.14-.28-.43a3.63,3.63,0,0,1,1-1.9c.6-.79,1.88-2.23,3.84-4.29,1.76-1.78,2.76-2.79,3.1-3,2-1.85,3.74-2.76,5.33-2.76a2.65,2.65,0,0,1,1.2.29.4.4,0,0,1,.17.24l-4.23,10h1.66c.17,0,.26.12.31.34a2.33,2.33,0,0,1-.38,1.15,1,1,0,0,1-.65.43h-1.75c-1.18,2.81-1.8,4.27-1.88,4.39s-.67.34-1.48.34A2.41,2.41,0,0,1,126.29,526.9Zm6.27-15.07a17.72,17.72,0,0,0-2.64,2.06,73.58,73.58,0,0,0-6.19,6.7h5.11Z" transform="translate(-39.91 -90.44)" fill="#231f20"/>
  </g>
  <g id="t6-s2-w1-a0-k0-lmain-n7">
    <rect x="296.83" y="38.21" width="45.31" height="45.31" fill="none" stroke="#231f20" stroke-miterlimit="10"/>
    <g>
      <rect x="300.27" y="136.21" width="27.44" height="30.17" rx="12" transform="translate(425.38 -253.13) rotate(90)" fill="none" stroke="#231f20" stroke-miterlimit="10"/>
      <path d="M306.26,138.92h18.25a2.63,2.63,0,0,1,2.63,2.63v12.61a9.53,9.53,0,0,1-9.53,9.53h-1.83a9.53,9.53,0,0,1-9.53-9.53V138.92A0,0,0,0,1,306.26,138.92Z" transform="translate(428.09 -255.84) rotate(90)" fill="none" stroke="#231f20" stroke-miterlimit="10"/>
    </g>
    <g>
      <rect x="390.61" y="135.52" width="27.44" height="30.17" rx="12" transform="translate(213.82 464.5) rotate(-90)" fill="none" stroke="#231f20" stroke-miterlimit="10"/>
      <path d="M391.19,138.22h18.25a2.63,2.63,0,0,1,2.63,2.63v12.61a9.53,9.53,0,0,1-9.53,9.53h-1.83a9.53,9.53,0,0,1-9.53-9.53V138.22A0,0,0,0,1,391.19,138.22Z" transform="translate(211.12 461.79) rotate(-90)" fill="none" stroke="#231f20" stroke-miterlimit="10"/>
    </g>
    <path d="M352.83,154.47a4.45,4.45,0,0,1-.36-1.8,12.07,12.07,0,0,1,2.35-6.29,24.72,24.72,0,0,1,1.75-2.2,19.19,19.19,0,0,1,3.24-2.84,9.55,9.55,0,0,1,4.94-1.8h.34a2.59,2.59,0,0,1,1.22.2v0c0,.12-.55.29-1.65.46q-4.25,1.08-7.13,7.05A14,14,0,0,0,356,153a2.76,2.76,0,0,0,.89,2.38,1.78,1.78,0,0,0,.94.24,2.81,2.81,0,0,0,1.92-1.13,8.09,8.09,0,0,0,1.77-4.54,2.21,2.21,0,0,0-.43-1.42,1.51,1.51,0,0,0-1.27-.57c-.12,0-.43.05-.91.12-.15,0-.22-.07-.22-.15,0-.24.46-.5,1.37-.76a6.52,6.52,0,0,1,1.51-.2,3.21,3.21,0,0,1,3.24,1.8,4.15,4.15,0,0,1,.29,1.52,6,6,0,0,1-1.66,4,8.11,8.11,0,0,1-6,2.45C355.08,156.71,353.52,156,352.83,154.47Z" transform="translate(-39.91 -90.44)" fill="#231f20"/>
  </g>
  <g id="t7-s2-w0-a0-k0-lmain-n6">
    <rect x="296.68" y="93.01" width="45.31" height="45.31" fill="none" stroke="#231f20" stroke-miterlimit="10"/>
    <g>
      <rect x="300.13" y="191.02" width="27.44" height="30.17" rx="12" transform="translate(480.05 -198.19) rotate(90)" fill="none" stroke="#231f20" stroke-miterlimit="10"/>
      <path d="M306.11,193.72h18.25a2.63,2.63,0,0,1,2.63,2.63V209a9.53,9.53,0,0,1-9.53,9.53h-1.83a9.53,9.53,0,0,1-9.53-9.53V193.72A0,0,0,0,1,306.11,193.72Z" transform="translate(482.75 -200.89) rotate(90)" fill="none" stroke="#231f20" stroke-miterlimit="10"/>
    </g>
    <g>
      <rect x="390.47" y="190.32" width="27.44" height="30.17" rx="12" transform="translate(158.88 519.16) rotate(-90)" fill="none" stroke="#231f20" stroke-miterlimit="10"/>
      <path d="M391,193H409.3a2.63,2.63,0,0,1,2.63,2.63v12.61a9.53,9.53,0,0,1-9.53,9.53h-1.83a9.53,9.53,0,0,1-9.53-9.53V193A0,0,0,0,1,391,193Z" transform="translate(156.17 516.46) rotate(-90)" fill="none" stroke="#231f20" stroke-miterlimit="10"/>
    </g>
    <path d="M361.29,194.78a10.17,10.17,0,0,0,1.77.17,3,3,0,0,0,1.71-.46.9.9,0,0,1,.41-.14.46.46,0,0,1,.48.29.18.18,0,0,1,0,.09v.07a1.07,1.07,0,0,1-.26.6c-.94,1.59-2.28,3.6-4,6.08a42,42,0,0,0-3.16,5.28,29,29,0,0,0-1.78,4.25.66.66,0,0,1-.41.28,3.56,3.56,0,0,1-1.39.24,2.94,2.94,0,0,1-1.7-.4.33.33,0,0,1-.12-.22,5.8,5.8,0,0,1,.36-1,12.74,12.74,0,0,1,.84-1.76,28.57,28.57,0,0,1,2.78-4.08l1.34-1.63,3.89-4.39v0a31,31,0,0,1-3.09-.57,7.49,7.49,0,0,0-1.47-.19h-.07c-1.37,0-2.35.81-3,2.47a1.62,1.62,0,0,1-.36.55l0,0h0c-.08,0-.12-.09-.12-.31v-.09a6.4,6.4,0,0,1,.48-2.12,9.87,9.87,0,0,1,1-1.75,5.32,5.32,0,0,1,1-1,3.78,3.78,0,0,1,2.31-.72A12.67,12.67,0,0,1,361.29,194.78Z" transform="translate(-39.91 -90.44)" fill="#231f20"/>
  </g>
  <g id="t5-s6-w1-a0-k1-lmain-n">
    <g>
      <path d="M251.84,145.36l0,0v0Z" transform="translate(-39.91 -90.44)" fill="none" stroke="#231f20" stroke-miterlimit="10"/>
      <path d="M254.1,146.45l-.07,0-.07.06a.91.91,0,0,1,0-.17Z" transform="translate(-39.91 -90.44)" fill="none" stroke="#231f20" stroke-miterlimit="10"/>
      <path d="M264.26,161.52l-.51-.15.45-.3Z" transform="translate(-39.91 -90.44)" fill="none" stroke="#231f20" stroke-miterlimit="10"/>
      <path d="M264.16,167.2l-.06.34-.25-.16-.09,0Z" transform="translate(-39.91 -90.44)" fill="none" stroke="#231f20" stroke-miterlimit="10"/>
      <g>
        <path d="M254.59,189.15v5.67a7.08,7.08,0,0,1-7.06,7.06h-9.21a7.08,7.08,0,0,1-7.07-7.06v-5.67a7.06,7.06,0,0,1,2.79-5.61,7.17,7.17,0,0,1,2.1-1.11A20.13,20.13,0,0,0,251,183a7.15,7.15,0,0,1,3.6,6.15Z" transform="translate(-39.91 -90.44)" fill="none" stroke="#231f20" stroke-miterlimit="10"/>
        <path d="M251.8,183.64v9.09a5.62,5.62,0,0,1-5.6,5.6h-6.55a5.63,5.63,0,0,1-5.61-5.6V182.09h1.36l.74.34A20.13,20.13,0,0,0,251,183c.19-.06.37-.13.56-.21a1.63,1.63,0,0,1,.25.75Z" transform="translate(-39.91 -90.44)" fill="none" stroke="#231f20" stroke-miterlimit="10"/>
      </g>
      <g>
        <path d="M254.59,134.11v5.66a7.07,7.07,0,0,1-2.75,5.59l0,0v0a20.11,20.11,0,0,0-16.65.73,7.81,7.81,0,0,1-1.1-.69,7,7,0,0,1-2.8-5.62v-5.66a7.08,7.08,0,0,1,7.07-7.06h9.21A7.08,7.08,0,0,1,254.59,134.11Z" transform="translate(-39.91 -90.44)" fill="none" stroke="#231f20" stroke-miterlimit="10"/>
        <path d="M251.8,136.2v9.15a20.11,20.11,0,0,0-16.65.73l-.62.33a1.54,1.54,0,0,1-.48-1,.34.34,0,0,1,0-.1V136.2a5.63,5.63,0,0,1,5.61-5.61h6.55A5.62,5.62,0,0,1,251.8,136.2Z" transform="translate(-39.91 -90.44)" fill="none" stroke="#231f20" stroke-miterlimit="10"/>
      </g>
      <g>
        <path d="M231.89,182.38a7,7,0,0,1-3.14,5.42L224,190.92a7.08,7.08,0,0,1-9.79-2l-5.07-7.69a7.08,7.08,0,0,1,2-9.78l4.73-3.12a7.05,7.05,0,0,1,6.22-.77,6.88,6.88,0,0,1,2.75,1.75,20.06,20.06,0,0,0,6.66,10.27A6.88,6.88,0,0,1,231.89,182.38Z" transform="translate(-39.91 -90.44)" fill="none" stroke="#231f20" stroke-miterlimit="10"/>
        <path d="M264.16,167.2l-.4.13.09,0,.25.16a20.18,20.18,0,0,1-10,14l-.57.3a19.21,19.21,0,0,1-2,.91c-.19.08-.37.15-.56.21a20.13,20.13,0,0,1-14.85-.57l-.74-.34a19.75,19.75,0,0,1-3.33-2.08c-.19-.13-.37-.28-.55-.43a20.06,20.06,0,0,1-6.66-10.27c0-.12-.07-.24-.1-.37a20.17,20.17,0,0,1-.32-8.33c0-.17.06-.35.1-.52a20.11,20.11,0,0,1,7.08-11.71c.41-.33.83-.65,1.26-.94a16.77,16.77,0,0,1,1.65-1l.62-.33a20.11,20.11,0,0,1,16.65-.73v0l0,0a18.11,18.11,0,0,1,2.13,1,.91.91,0,0,0,0,.17l.07-.06.07,0a20.13,20.13,0,0,1,10.1,14.62l-.45.3.51.15a20.72,20.72,0,0,1,.15,2.5A19.5,19.5,0,0,1,264.16,167.2Z" transform="translate(-39.91 -90.44)" fill="none" stroke="#231f20" stroke-miterlimit="10"/>
        <path d="M231.89,182.38l-.08.06-7.59,5a5.62,5.62,0,0,1-7.76-1.59l-3.61-5.47a5.63,5.63,0,0,1,1.59-7.77l7.67-5.06,1.21-.8,1.44,2.18c0,.13.07.25.1.37a20.06,20.06,0,0,0,6.66,10.27c.18.15.36.3.55.43l.18.28A1.55,1.55,0,0,1,231.89,182.38Z" transform="translate(-39.91 -90.44)" fill="none" stroke="#231f20" stroke-miterlimit="10"/>
      </g>
      <g>
        <path d="M274.69,157.48,270,160.6a7,7,0,0,1-5.7.92l-.51-.15.45-.3a20.13,20.13,0,0,0-10.1-14.62l-.07,0-.07.06a.91.91,0,0,1,0-.17,7,7,0,0,1,3.14-5.25l4.72-3.12a7.07,7.07,0,0,1,9.79,2l5.07,7.69A7.08,7.08,0,0,1,274.69,157.48Z" transform="translate(-39.91 -90.44)" fill="none" stroke="#231f20" stroke-miterlimit="10"/>
        <path d="M271.4,156.31l-7.2,4.76a20.13,20.13,0,0,0-10.1-14.62l7.52-5a5.63,5.63,0,0,1,7.77,1.59l3.61,5.47A5.63,5.63,0,0,1,271.4,156.31Z" transform="translate(-39.91 -90.44)" fill="none" stroke="#231f20" stroke-miterlimit="10"/>
      </g>
      <g>
        <path d="M231.62,148.38a20.11,20.11,0,0,0-7.08,11.71,7,7,0,0,1-2.46,1.51,7.06,7.06,0,0,1-6.23-.69l-4.76-3.07a7.08,7.08,0,0,1-2.12-9.76l5-7.75a7.08,7.08,0,0,1,9.76-2.11l4.77,3.06a7.05,7.05,0,0,1,3.2,5.39A6.54,6.54,0,0,1,231.62,148.38Z" transform="translate(-39.91 -90.44)" fill="none" stroke="#231f20" stroke-miterlimit="10"/>
        <path d="M232.88,147.44c-.43.29-.85.61-1.26.94a20.11,20.11,0,0,0-7.08,11.71c0,.17-.07.35-.1.52l-.3.48a1.57,1.57,0,0,1-2.06.51l-.09,0-7.64-4.92a5.62,5.62,0,0,1-1.67-7.75l3.54-5.51A5.62,5.62,0,0,1,224,141.7l7.72,5Z" transform="translate(-39.91 -90.44)" fill="none" stroke="#231f20" stroke-miterlimit="10"/>
      </g>
      <g>
        <path d="M276.88,180.85l-5,7.75a7.08,7.08,0,0,1-9.76,2.11l-4.76-3.06a7.08,7.08,0,0,1-3.21-5.39,3.87,3.87,0,0,1,0-.68,20.18,20.18,0,0,0,10-14l-.25-.16-.09,0,.4-.13A7.06,7.06,0,0,1,270,168l4.77,3.07A7.09,7.09,0,0,1,276.88,180.85Z" transform="translate(-39.91 -90.44)" fill="none" stroke="#231f20" stroke-miterlimit="10"/>
        <path d="M273.18,180.05l-3.55,5.51a5.62,5.62,0,0,1-7.75,1.67l-7.72-5-.59-.38.57-.3a20.18,20.18,0,0,0,10-14l7.4,4.76A5.64,5.64,0,0,1,273.18,180.05Z" transform="translate(-39.91 -90.44)" fill="none" stroke="#231f20" stroke-miterlimit="10"/>
      </g>
    </g>
    <path d="M238.24,169.61a3,3,0,0,1-.68-1.92,3.52,3.52,0,0,1,1-2.48,2.65,2.65,0,0,1,1.15-.67,2.69,2.69,0,0,1,1-.12,2.53,2.53,0,0,1,1.7.41.14.14,0,0,1,.08.14c0,.15-.27.32-.77.46s-.79,1-.79,2a3.57,3.57,0,0,0,.57,2.06,1.15,1.15,0,0,0,.91.5,2.72,2.72,0,0,0,1.85-1,7.64,7.64,0,0,0,1.73-3.55,8.88,8.88,0,0,0,.12-1.08,2.94,2.94,0,0,0-1.25-2.69,3.53,3.53,0,0,0-1.89-.48c-.27,0-.75.05-1.47.1s-.91-.12-.91-.27.22-.21.65-.36c0,0,.31-.79.93-2.21.89-2.18,1.4-3.38,1.52-3.55a2.44,2.44,0,0,1,2.11-.91c.07,0,.09,0,.12,0s0,0,0,0a10.1,10.1,0,0,1,2.9.74,5.67,5.67,0,0,0,1.39.27,2.32,2.32,0,0,0,1.23-.48,2.75,2.75,0,0,1,1.29-.56c.05,0,.08,0,.08.05,0,.24-.36.72-1.11,1.44a6.09,6.09,0,0,1-3.94,1.68,2.34,2.34,0,0,1-1.34-.45,2,2,0,0,0-1.15-.48,2.54,2.54,0,0,0-1.23.38l-1.65,3.86h0a13,13,0,0,1,1.78-.11q3.7,0,5.11,2.37a4.62,4.62,0,0,1,.48,2,6.1,6.1,0,0,1-1.75,4.18,7.31,7.31,0,0,1-5.28,2.26C240.68,171.17,239.15,170.64,238.24,169.61Z" transform="translate(-39.91 -90.44)" fill="#231f20"/>
  </g>
  <g id="t9-s6-w0-a1-k0-lmain-n8">
    <g>
      <path d="M276.86,340.25l0,0v0Z" transform="translate(-39.91 -90.44)" fill="none" stroke="#231f20" stroke-miterlimit="10"/>
      <path d="M279.13,341.34l-.07.05a.21.21,0,0,0-.08.06c0-.06,0-.12,0-.18Z" transform="translate(-39.91 -90.44)" fill="none" stroke="#231f20" stroke-miterlimit="10"/>
      <path d="M289.28,356.41l-.51-.15.46-.3C289.24,356.11,289.27,356.26,289.28,356.41Z" transform="translate(-39.91 -90.44)" fill="none" stroke="#231f20" stroke-miterlimit="10"/>
      <path d="M289.19,362.1l-.06.34-.25-.17-.09,0A3,3,0,0,1,289.19,362.1Z" transform="translate(-39.91 -90.44)" fill="none" stroke="#231f20" stroke-miterlimit="10"/>
      <g>
        <path d="M279.62,384.05v5.66a7.09,7.09,0,0,1-7.06,7.07h-9.22a7.09,7.09,0,0,1-7.06-7.07v-5.66a7,7,0,0,1,2.79-5.62,7.42,7.42,0,0,1,2.1-1.11,20.13,20.13,0,0,0,14.85.57,6.23,6.23,0,0,1,.8.54A7,7,0,0,1,279.62,384.05Z" transform="translate(-39.91 -90.44)" fill="none" stroke="#231f20" stroke-miterlimit="10"/>
        <path d="M276.83,378.53v9.09a5.63,5.63,0,0,1-5.6,5.61h-6.55a5.63,5.63,0,0,1-5.61-5.61V377h1.36c.24.12.49.24.74.34a20.13,20.13,0,0,0,14.85.57l.56-.2a1.45,1.45,0,0,1,.24.74A.34.34,0,0,1,276.83,378.53Z" transform="translate(-39.91 -90.44)" fill="none" stroke="#231f20" stroke-miterlimit="10"/>
      </g>
      <g>
        <path d="M279.62,329v5.66a7,7,0,0,1-2.76,5.59l0,0v0a20.11,20.11,0,0,0-16.65.73,6.56,6.56,0,0,1-1.1-.69,7,7,0,0,1-2.8-5.62V329a7.08,7.08,0,0,1,7.06-7.06h9.22A7.08,7.08,0,0,1,279.62,329Z" transform="translate(-39.91 -90.44)" fill="none" stroke="#231f20" stroke-miterlimit="10"/>
        <path d="M276.83,331.09v9.15a20.11,20.11,0,0,0-16.65.73l-.62.33a1.47,1.47,0,0,1-.48-1,.28.28,0,0,1,0-.09v-9.1a5.62,5.62,0,0,1,5.61-5.6h6.55A5.62,5.62,0,0,1,276.83,331.09Z" transform="translate(-39.91 -90.44)" fill="none" stroke="#231f20" stroke-miterlimit="10"/>
      </g>
      <g>
        <path d="M256.92,377.27a7.07,7.07,0,0,1-3.15,5.43l-4.72,3.12a7.1,7.1,0,0,1-9.79-2l-5.08-7.7a7.09,7.09,0,0,1,2-9.78l4.73-3.12a7,7,0,0,1,6.22-.77,7.25,7.25,0,0,1,2.75,1.75,20,20,0,0,0,6.65,10.27A6.72,6.72,0,0,1,256.92,377.27Z" transform="translate(-39.91 -90.44)" fill="none" stroke="#231f20" stroke-miterlimit="10"/>
        <path d="M289.19,362.1a3,3,0,0,0-.4.12l.09,0,.25.17a20.16,20.16,0,0,1-10,14l-.58.31a21.33,21.33,0,0,1-2,.91l-.56.2a20.13,20.13,0,0,1-14.85-.57c-.25-.1-.5-.22-.74-.34a19.36,19.36,0,0,1-3.33-2.08c-.19-.13-.37-.28-.56-.43a20,20,0,0,1-6.65-10.27c0-.12-.07-.24-.1-.36a19.91,19.91,0,0,1-.61-4.92,20.12,20.12,0,0,1,.29-3.41c0-.18.06-.36.1-.53a20.11,20.11,0,0,1,7.08-11.71c.41-.33.82-.65,1.26-.94s1.08-.71,1.65-1l.62-.33a20.11,20.11,0,0,1,16.65-.73v0l0,0a20,20,0,0,1,2.14,1c0,.06,0,.12,0,.18a.21.21,0,0,1,.08-.06l.07-.05A20.16,20.16,0,0,1,289.23,356l-.46.3.51.15a20.75,20.75,0,0,1,.16,2.51A19.68,19.68,0,0,1,289.19,362.1Z" transform="translate(-39.91 -90.44)" fill="none" stroke="#231f20" stroke-miterlimit="10"/>
        <path d="M256.92,377.27l-.08.06-7.59,5a5.61,5.61,0,0,1-7.76-1.59l-3.61-5.47a5.61,5.61,0,0,1,1.59-7.76l7.67-5.07,1.21-.8,1.44,2.19c0,.12.06.24.1.36a20,20,0,0,0,6.65,10.27c.19.15.37.3.56.43l.18.29A1.55,1.55,0,0,1,256.92,377.27Z" transform="translate(-39.91 -90.44)" fill="none" stroke="#231f20" stroke-miterlimit="10"/>
      </g>
      <g>
        <path d="M299.72,352.38,295,355.5a7,7,0,0,1-5.71.91l-.51-.15.46-.3a20.16,20.16,0,0,0-10.1-14.62l-.07.05a.21.21,0,0,0-.08.06c0-.06,0-.12,0-.18a7,7,0,0,1,3.13-5.25l4.73-3.12a7.08,7.08,0,0,1,9.78,2l5.08,7.69A7.09,7.09,0,0,1,299.72,352.38Z" transform="translate(-39.91 -90.44)" fill="none" stroke="#231f20" stroke-miterlimit="10"/>
        <path d="M296.43,351.2l-7.2,4.76a20.16,20.16,0,0,0-10.1-14.62l7.52-5a5.62,5.62,0,0,1,7.77,1.59l3.61,5.47A5.62,5.62,0,0,1,296.43,351.2Z" transform="translate(-39.91 -90.44)" fill="none" stroke="#231f20" stroke-miterlimit="10"/>
      </g>
      <g>
        <path d="M256.65,343.27A20.11,20.11,0,0,0,249.57,355a6.83,6.83,0,0,1-2.46,1.51,7,7,0,0,1-6.24-.69l-4.76-3.06A7.09,7.09,0,0,1,234,343l5-7.75a7.09,7.09,0,0,1,9.76-2.11l4.76,3.07a7.09,7.09,0,0,1,3.14,7.09Z" transform="translate(-39.91 -90.44)" fill="none" stroke="#231f20" stroke-miterlimit="10"/>
        <path d="M257.91,342.33c-.44.29-.85.61-1.26.94A20.11,20.11,0,0,0,249.57,355c0,.17-.07.35-.1.53l-.31.47a1.54,1.54,0,0,1-2,.51l-.09-.05-7.64-4.92a5.63,5.63,0,0,1-1.68-7.75l3.55-5.5a5.62,5.62,0,0,1,7.75-1.68l7.72,5Z" transform="translate(-39.91 -90.44)" fill="none" stroke="#231f20" stroke-miterlimit="10"/>
      </g>
      <g>
        <path d="M301.9,375.75l-5,7.74a7.09,7.09,0,0,1-9.77,2.12l-4.76-3.07a7.06,7.06,0,0,1-3.21-5.39,3.86,3.86,0,0,1,0-.68,20.16,20.16,0,0,0,10-14l-.25-.17-.09,0a3,3,0,0,1,.4-.12,7,7,0,0,1,5.84.81l4.76,3.07A7.08,7.08,0,0,1,301.9,375.75Z" transform="translate(-39.91 -90.44)" fill="none" stroke="#231f20" stroke-miterlimit="10"/>
        <path d="M298.2,374.94l-3.55,5.51a5.61,5.61,0,0,1-7.74,1.68l-7.73-5-.59-.37.58-.31a20.16,20.16,0,0,0,10-14l7.39,4.75A5.63,5.63,0,0,1,298.2,374.94Z" transform="translate(-39.91 -90.44)" fill="none" stroke="#231f20" stroke-miterlimit="10"/>
      </g>
    </g>
    <path d="M262.05,367.47h0c0-.12.55-.26,1.65-.46a7.18,7.18,0,0,0,3.07-1.56,16.66,16.66,0,0,0,4.9-7.56,12.5,12.5,0,0,0,.67-3.65,2.59,2.59,0,0,0-1-2.47,1.73,1.73,0,0,0-.79-.17c-.7,0-1.42.48-2.19,1.47a7.19,7.19,0,0,0-1.53,4.17c0,1.35.57,2,1.73,2l.88-.09c.15,0,.22,0,.22.14s-.22.31-.65.5a5.72,5.72,0,0,1-2.23.44,3.64,3.64,0,0,1-2.54-.85,3.38,3.38,0,0,1-1-2.44,6.08,6.08,0,0,1,1.56-3.87,8,8,0,0,1,6.05-2.57h.29a5.3,5.3,0,0,1,3.72,1.23,3.79,3.79,0,0,1,1.05,2.78c0,1.92-.86,4.13-2.59,6.65a19.72,19.72,0,0,1-1.65,2,18.63,18.63,0,0,1-4,3.22,8.71,8.71,0,0,1-4.08,1.25C262.55,367.69,262.05,367.61,262.05,367.47Z" transform="translate(-39.91 -90.44)" fill="#231f20"/>
  </g>
  <g id="t8-s6-w0-a0-k1-lmain-n9">
    <g>
      <path d="M369.44,283l0,0v0Z" transform="translate(-39.91 -90.44)" fill="none" stroke="#231f20" stroke-miterlimit="10"/>
      <path d="M371.7,284.06l-.07.05a.2.2,0,0,0-.07.06,1.09,1.09,0,0,1,0-.18Z" transform="translate(-39.91 -90.44)" fill="none" stroke="#231f20" stroke-miterlimit="10"/>
      <path d="M381.86,299.14a5.16,5.16,0,0,1-.52-.16l.46-.3Z" transform="translate(-39.91 -90.44)" fill="none" stroke="#231f20" stroke-miterlimit="10"/>
      <path d="M381.76,304.82l-.06.34-.25-.17-.09,0A2.32,2.32,0,0,1,381.76,304.82Z" transform="translate(-39.91 -90.44)" fill="none" stroke="#231f20" stroke-miterlimit="10"/>
      <g>
        <path d="M372.19,326.77v5.67a7.08,7.08,0,0,1-7.06,7.06h-9.21a7.09,7.09,0,0,1-7.07-7.06v-5.67a7.08,7.08,0,0,1,2.79-5.62,7.42,7.42,0,0,1,2.1-1.11,19.92,19.92,0,0,0,8.14,1.72,20.16,20.16,0,0,0,6.71-1.14,5.28,5.28,0,0,1,.8.53A7,7,0,0,1,372.19,326.77Z" transform="translate(-39.91 -90.44)" fill="none" stroke="#231f20" stroke-miterlimit="10"/>
        <path d="M369.4,321.25v9.1a5.62,5.62,0,0,1-5.6,5.6h-6.55a5.63,5.63,0,0,1-5.61-5.6V319.7H353c.24.12.49.24.74.34a19.92,19.92,0,0,0,8.14,1.72,20.16,20.16,0,0,0,6.71-1.14l.56-.21a1.45,1.45,0,0,1,.24.74A.38.38,0,0,1,369.4,321.25Z" transform="translate(-39.91 -90.44)" fill="none" stroke="#231f20" stroke-miterlimit="10"/>
      </g>
      <g>
        <path d="M372.19,271.72v5.67a7.05,7.05,0,0,1-2.75,5.58l0,0v0a20.22,20.22,0,0,0-16.65.73,6,6,0,0,1-1.1-.69,7,7,0,0,1-2.8-5.61v-5.67a7.09,7.09,0,0,1,7.07-7.06h9.21A7.08,7.08,0,0,1,372.19,271.72Z" transform="translate(-39.91 -90.44)" fill="none" stroke="#231f20" stroke-miterlimit="10"/>
        <path d="M369.4,273.81V283a20.22,20.22,0,0,0-16.65.73c-.21.11-.42.22-.62.34a1.52,1.52,0,0,1-.48-1,.28.28,0,0,1,0-.09v-9.1a5.63,5.63,0,0,1,5.61-5.6h6.55A5.62,5.62,0,0,1,369.4,273.81Z" transform="translate(-39.91 -90.44)" fill="none" stroke="#231f20" stroke-miterlimit="10"/>
      </g>
      <g>
        <path d="M349.49,320a7,7,0,0,1-3.15,5.43l-4.72,3.12a7.1,7.1,0,0,1-9.79-2l-5.08-7.7a7.09,7.09,0,0,1,2-9.78l4.73-3.12a7.12,7.12,0,0,1,9,1,20.09,20.09,0,0,0,6.66,10.28A6.83,6.83,0,0,1,349.49,320Z" transform="translate(-39.91 -90.44)" fill="none" stroke="#231f20" stroke-miterlimit="10"/>
        <path d="M381.76,304.82a2.32,2.32,0,0,0-.4.13l.09,0,.25.17a20.14,20.14,0,0,1-10,14l-.57.31a21.5,21.5,0,0,1-2,.91l-.56.21a20.16,20.16,0,0,1-6.71,1.14,19.92,19.92,0,0,1-8.14-1.72c-.25-.1-.5-.22-.74-.34a19.7,19.7,0,0,1-3.33-2.07l-.55-.43a20.09,20.09,0,0,1-6.66-10.28c0-.11-.07-.24-.1-.36a19.91,19.91,0,0,1-.61-4.92,20.21,20.21,0,0,1,.29-3.41c0-.18.06-.35.1-.53A20.11,20.11,0,0,1,349.22,286c.41-.33.83-.65,1.26-.94a17.42,17.42,0,0,1,1.65-1c.2-.12.41-.23.62-.34A20.22,20.22,0,0,1,369.4,283v0l0,0a20.81,20.81,0,0,1,2.13,1,1.09,1.09,0,0,0,0,.18.2.2,0,0,1,.07-.06l.07-.05a20.15,20.15,0,0,1,10.1,14.62l-.46.3a5.16,5.16,0,0,0,.52.16,20.47,20.47,0,0,1,.15,2.5A19.68,19.68,0,0,1,381.76,304.82Z" transform="translate(-39.91 -90.44)" fill="none" stroke="#231f20" stroke-miterlimit="10"/>
        <path d="M349.49,320l-.08.06-7.59,5a5.61,5.61,0,0,1-7.76-1.59L330.45,318a5.61,5.61,0,0,1,1.59-7.76l7.67-5.06,1.21-.8,1.44,2.18c0,.12.06.25.1.36a20.09,20.09,0,0,0,6.66,10.28l.55.43.18.28A1.55,1.55,0,0,1,349.49,320Z" transform="translate(-39.91 -90.44)" fill="none" stroke="#231f20" stroke-miterlimit="10"/>
      </g>
      <g>
        <path d="M392.29,295.1l-4.73,3.12a7,7,0,0,1-5.7.92,5.16,5.16,0,0,1-.52-.16l.46-.3a20.15,20.15,0,0,0-10.1-14.62l-.07.05a.2.2,0,0,0-.07.06,1.09,1.09,0,0,1,0-.18,7,7,0,0,1,3.13-5.25l4.73-3.12a7.08,7.08,0,0,1,9.78,2l5.08,7.7A7.08,7.08,0,0,1,392.29,295.1Z" transform="translate(-39.91 -90.44)" fill="none" stroke="#231f20" stroke-miterlimit="10"/>
        <path d="M389,293.92l-7.2,4.76a20.15,20.15,0,0,0-10.1-14.62l7.52-5a5.63,5.63,0,0,1,7.77,1.59l3.61,5.47A5.62,5.62,0,0,1,389,293.92Z" transform="translate(-39.91 -90.44)" fill="none" stroke="#231f20" stroke-miterlimit="10"/>
      </g>
      <g>
        <path d="M349.22,286a20.11,20.11,0,0,0-7.08,11.71,6.83,6.83,0,0,1-2.46,1.51,7,7,0,0,1-6.23-.69l-4.77-3.06a7.09,7.09,0,0,1-2.11-9.77l5-7.74a7.08,7.08,0,0,1,9.76-2.12l4.76,3.07a7,7,0,0,1,3.21,5.39A6.48,6.48,0,0,1,349.22,286Z" transform="translate(-39.91 -90.44)" fill="none" stroke="#231f20" stroke-miterlimit="10"/>
        <path d="M350.48,285.05c-.43.29-.85.61-1.26.94a20.11,20.11,0,0,0-7.08,11.71c0,.18-.07.35-.1.53l-.31.47a1.54,1.54,0,0,1-2.05.51l-.09,0L332,294.24a5.63,5.63,0,0,1-1.68-7.75l3.55-5.5a5.62,5.62,0,0,1,7.75-1.68l7.72,5Z" transform="translate(-39.91 -90.44)" fill="none" stroke="#231f20" stroke-miterlimit="10"/>
      </g>
      <g>
        <path d="M394.48,318.47l-5,7.74a7.08,7.08,0,0,1-9.76,2.12L375,325.26a7.05,7.05,0,0,1-3.2-5.39,3.87,3.87,0,0,1,0-.68,20.14,20.14,0,0,0,10-14l-.25-.17-.09,0a2.32,2.32,0,0,1,.4-.13,7.06,7.06,0,0,1,5.84.81l4.76,3.07A7.09,7.09,0,0,1,394.48,318.47Z" transform="translate(-39.91 -90.44)" fill="none" stroke="#231f20" stroke-miterlimit="10"/>
        <path d="M390.77,317.67l-3.55,5.5a5.61,5.61,0,0,1-7.74,1.68l-7.72-5-.59-.37.57-.31a20.14,20.14,0,0,0,10-14l7.4,4.75A5.64,5.64,0,0,1,390.77,317.67Z" transform="translate(-39.91 -90.44)" fill="none" stroke="#231f20" stroke-miterlimit="10"/>
      </g>
    </g>
    <path d="M355.89,308.68a3.27,3.27,0,0,1-1.15-2.55,4.81,4.81,0,0,1,1.9-3.67,6.46,6.46,0,0,1,1.34-.86,9.12,9.12,0,0,1,2.33-.72,4.24,4.24,0,0,1-.94-2.6,6.18,6.18,0,0,1,2-4.37,5.85,5.85,0,0,1,3.82-1.51,3.8,3.8,0,0,1,3.26,1.42,3.2,3.2,0,0,1,.55,1.82,4.67,4.67,0,0,1-1.25,3.07,6.24,6.24,0,0,1-2.64,1.71c-.16.05-.26.07-.26.1a4.42,4.42,0,0,1,1.06,3,5.74,5.74,0,0,1-1.37,3.6,7.3,7.3,0,0,1-5.69,2.47A4.6,4.6,0,0,1,355.89,308.68Zm6.17-2a4.82,4.82,0,0,0,.31-1.75,4,4,0,0,0-1.39-3.24c-2.45.45-3.67,1.82-3.67,4.05a3.17,3.17,0,0,0,1,2.5,2.08,2.08,0,0,0,1.25.46A2.75,2.75,0,0,0,362.06,306.66Zm4.95-8.47a2.73,2.73,0,0,0,.38-1.32,3.15,3.15,0,0,0-1-2.24,3.39,3.39,0,0,0-2.38-1,2,2,0,0,0-1.7.89,2.13,2.13,0,0,0-.31,1.2,6,6,0,0,0,2,3.91c.17.19.26.29.29.29A4.63,4.63,0,0,0,367,298.19Z" transform="translate(-39.91 -90.44)" fill="#231f20"/>
  </g>
  <g id="t10-s6-w1-a1-k0-lmain-n11">
    <g>
      <path d="M317,474.38l0,0v0Z" transform="translate(-39.91 -90.44)" fill="none" stroke="#231f20" stroke-miterlimit="10"/>
      <path d="M319.29,475.47l-.07,0-.08.05c0-.05,0-.11,0-.17Z" transform="translate(-39.91 -90.44)" fill="none" stroke="#231f20" stroke-miterlimit="10"/>
      <path d="M329.45,490.54a5.08,5.08,0,0,1-.52-.15l.46-.3C329.4,490.24,329.43,490.39,329.45,490.54Z" transform="translate(-39.91 -90.44)" fill="none" stroke="#231f20" stroke-miterlimit="10"/>
      <path d="M329.35,496.22l-.06.35-.25-.17-.09,0Z" transform="translate(-39.91 -90.44)" fill="none" stroke="#231f20" stroke-miterlimit="10"/>
      <g>
        <path d="M319.78,518.17v5.67a7.09,7.09,0,0,1-7.06,7.07H303.5a7.09,7.09,0,0,1-7.06-7.07v-5.67a7.06,7.06,0,0,1,2.79-5.61,7.17,7.17,0,0,1,2.1-1.11,20.13,20.13,0,0,0,14.85.57,6.23,6.23,0,0,1,.8.54A7,7,0,0,1,319.78,518.17Z" transform="translate(-39.91 -90.44)" fill="none" stroke="#231f20" stroke-miterlimit="10"/>
        <path d="M317,512.66v9.09a5.63,5.63,0,0,1-5.6,5.61h-6.55a5.63,5.63,0,0,1-5.61-5.61V511.11h1.36c.24.12.49.24.74.34a20.13,20.13,0,0,0,14.85.57l.56-.2a1.45,1.45,0,0,1,.24.74A.31.31,0,0,1,317,512.66Z" transform="translate(-39.91 -90.44)" fill="none" stroke="#231f20" stroke-miterlimit="10"/>
      </g>
      <g>
        <path d="M319.78,463.13v5.66a7.07,7.07,0,0,1-2.75,5.59l0,0v0a20.11,20.11,0,0,0-16.65.73,7.28,7.28,0,0,1-1.1-.69,7,7,0,0,1-2.8-5.62v-5.66a7.08,7.08,0,0,1,7.06-7.06h9.22A7.08,7.08,0,0,1,319.78,463.13Z" transform="translate(-39.91 -90.44)" fill="none" stroke="#231f20" stroke-miterlimit="10"/>
        <path d="M317,465.22v9.15a20.11,20.11,0,0,0-16.65.73l-.62.33a1.49,1.49,0,0,1-.48-1,.34.34,0,0,1,0-.1v-9.09a5.63,5.63,0,0,1,5.61-5.6h6.55A5.62,5.62,0,0,1,317,465.22Z" transform="translate(-39.91 -90.44)" fill="none" stroke="#231f20" stroke-miterlimit="10"/>
      </g>
      <g>
        <path d="M297.08,511.4a7,7,0,0,1-3.15,5.43L289.21,520a7.09,7.09,0,0,1-9.79-2l-5.08-7.69a7.09,7.09,0,0,1,2-9.78l4.73-3.12a7.09,7.09,0,0,1,9,1,20.06,20.06,0,0,0,6.66,10.27A6.88,6.88,0,0,1,297.08,511.4Z" transform="translate(-39.91 -90.44)" fill="none" stroke="#231f20" stroke-miterlimit="10"/>
        <path d="M329.35,496.22l-.4.13.09,0,.25.17a20.16,20.16,0,0,1-10,14l-.57.3a19.28,19.28,0,0,1-2,.92l-.56.2a20.13,20.13,0,0,1-14.85-.57c-.25-.1-.5-.22-.74-.34a19.75,19.75,0,0,1-3.33-2.08c-.19-.13-.37-.28-.55-.43a20.06,20.06,0,0,1-6.66-10.27c0-.12-.07-.24-.1-.36a20.17,20.17,0,0,1-.32-8.33c0-.18.06-.36.1-.53a20.11,20.11,0,0,1,7.08-11.71c.41-.33.83-.65,1.26-.94s1.08-.71,1.65-1l.62-.33a20.11,20.11,0,0,1,16.65-.73v0l0,0a20.81,20.81,0,0,1,2.13,1c0,.06,0,.12,0,.17l.08-.05.07,0a20.16,20.16,0,0,1,10.1,14.62l-.46.3a5.08,5.08,0,0,0,.52.15,20.76,20.76,0,0,1,.15,2.51A19.47,19.47,0,0,1,329.35,496.22Z" transform="translate(-39.91 -90.44)" fill="none" stroke="#231f20" stroke-miterlimit="10"/>
        <path d="M297.08,511.4l-.08.06-7.59,5a5.61,5.61,0,0,1-7.76-1.59L278,509.41a5.61,5.61,0,0,1,1.59-7.76l7.67-5.07,1.21-.8L290,498c0,.12.06.24.1.36a20.06,20.06,0,0,0,6.66,10.27c.18.15.36.3.55.43l.18.29A1.55,1.55,0,0,1,297.08,511.4Z" transform="translate(-39.91 -90.44)" fill="none" stroke="#231f20" stroke-miterlimit="10"/>
      </g>
      <g>
        <path d="M339.88,486.51l-4.73,3.12a7,7,0,0,1-5.7.91,5.08,5.08,0,0,1-.52-.15l.46-.3a20.16,20.16,0,0,0-10.1-14.62l-.07,0-.08.05c0-.05,0-.11,0-.17a7,7,0,0,1,3.13-5.25L327,467a7.07,7.07,0,0,1,9.78,2l5.08,7.69A7.09,7.09,0,0,1,339.88,486.51Z" transform="translate(-39.91 -90.44)" fill="none" stroke="#231f20" stroke-miterlimit="10"/>
        <path d="M336.59,485.33l-7.2,4.76a20.16,20.16,0,0,0-10.1-14.62l7.52-5a5.62,5.62,0,0,1,7.77,1.59l3.61,5.46A5.63,5.63,0,0,1,336.59,485.33Z" transform="translate(-39.91 -90.44)" fill="none" stroke="#231f20" stroke-miterlimit="10"/>
      </g>
      <g>
        <path d="M296.81,477.4a20.11,20.11,0,0,0-7.08,11.71,6.83,6.83,0,0,1-2.46,1.51,7.06,7.06,0,0,1-6.23-.69l-4.77-3.07a7.08,7.08,0,0,1-2.11-9.76l5-7.75a7.09,7.09,0,0,1,9.76-2.11l4.76,3.07a7,7,0,0,1,3.21,5.38A6.54,6.54,0,0,1,296.81,477.4Z" transform="translate(-39.91 -90.44)" fill="none" stroke="#231f20" stroke-miterlimit="10"/>
        <path d="M298.07,476.46c-.43.29-.85.61-1.26.94a20.11,20.11,0,0,0-7.08,11.71c0,.17-.07.35-.1.53l-.31.47a1.54,1.54,0,0,1-2.05.51l-.09-.05-7.64-4.92a5.63,5.63,0,0,1-1.68-7.75l3.55-5.5a5.62,5.62,0,0,1,7.75-1.68l7.72,5Z" transform="translate(-39.91 -90.44)" fill="none" stroke="#231f20" stroke-miterlimit="10"/>
      </g>
      <g>
        <path d="M342.07,509.87l-5,7.75a7.07,7.07,0,0,1-9.76,2.11l-4.77-3.06a7.09,7.09,0,0,1-3.21-5.39,5.15,5.15,0,0,1,0-.68,20.16,20.16,0,0,0,10-14l-.25-.17-.09,0,.4-.13a7.06,7.06,0,0,1,5.84.82l4.76,3.07A7.08,7.08,0,0,1,342.07,509.87Z" transform="translate(-39.91 -90.44)" fill="none" stroke="#231f20" stroke-miterlimit="10"/>
        <path d="M338.36,509.07l-3.55,5.51a5.61,5.61,0,0,1-7.74,1.68l-7.73-5-.58-.38.57-.3a20.16,20.16,0,0,0,10-14l7.4,4.75A5.62,5.62,0,0,1,338.36,509.07Z" transform="translate(-39.91 -90.44)" fill="none" stroke="#231f20" stroke-miterlimit="10"/>
      </g>
    </g>
    <g>
      <path d="M306.63,483.05a2.33,2.33,0,0,1,1.41.34.24.24,0,0,1,0,.12v0s-1,2.5-3.17,7.49c-2.44,5.76-3.69,8.72-3.76,8.81a2.21,2.21,0,0,1-1.42.34h-.15a2.38,2.38,0,0,1-1.46-.34c0-.05-.05-.07-.05-.12l.63-1.49L304,485.79c.05-.08.21-.46.48-1.16a10.23,10.23,0,0,0-1.8,1.2,7.17,7.17,0,0,0-1.18,1.09,8.82,8.82,0,0,0-1.34,1.77.49.49,0,0,1-.48.31c-.36,0-.53-.24-.53-.53a5.65,5.65,0,0,1,1.27-1.94,17.38,17.38,0,0,1,1.27-1.25c1.76-1.49,3.34-2.23,4.78-2.23Z" transform="translate(-39.91 -90.44)" fill="#231f20"/>
      <path d="M317.36,483.05a3.07,3.07,0,0,1,3.16,2.4,7,7,0,0,1,.24,1.8v.17a14.14,14.14,0,0,1-1.24,5.21,18.24,18.24,0,0,1-1.85,3.21,10.88,10.88,0,0,1-5.07,4,7.19,7.19,0,0,1-2,.34h-.24a3.79,3.79,0,0,1-3.4-1.71,5.4,5.4,0,0,1-.65-2.78,13,13,0,0,1,1.65-5.78,17.09,17.09,0,0,1,1.66-2.5,14.35,14.35,0,0,1,1.34-1.49s.2-.17.51-.46a9.18,9.18,0,0,1,5.85-2.42Zm-6.63,14.81a1.94,1.94,0,0,0,1.15.36c1.16,0,2.4-.84,3.77-2.47a19.16,19.16,0,0,0,1.61-2.45,14.09,14.09,0,0,0,1.82-6.07,2.51,2.51,0,0,0-1.15-2.45,2.39,2.39,0,0,0-.91-.19h-.14a5,5,0,0,0-3.58,2,12.18,12.18,0,0,0-1.27,1.71,13.42,13.42,0,0,0-1.08,2.06,13,13,0,0,0-1.16,4.95A3.17,3.17,0,0,0,310.73,497.86Z" transform="translate(-39.91 -90.44)" fill="#231f20"/>
    </g>
  </g>
  <g id="t11-s6-w1-a1-k0-lmain-n10">
    <g>
      <path d="M439.68,480.87l0,0v0Z" transform="translate(-39.91 -90.44)" fill="none" stroke="#231f20" stroke-miterlimit="10"/>
      <path d="M442,482l-.07.05-.08.06c0-.06,0-.12,0-.18Z" transform="translate(-39.91 -90.44)" fill="none" stroke="#231f20" stroke-miterlimit="10"/>
      <path d="M452.1,497l-.51-.16.46-.3C452.06,496.74,452.09,496.88,452.1,497Z" transform="translate(-39.91 -90.44)" fill="none" stroke="#231f20" stroke-miterlimit="10"/>
      <path d="M452,502.72l-.06.34-.25-.17-.09,0A2.07,2.07,0,0,1,452,502.72Z" transform="translate(-39.91 -90.44)" fill="none" stroke="#231f20" stroke-miterlimit="10"/>
      <g>
        <path d="M442.44,524.67v5.67a7.08,7.08,0,0,1-7.06,7.06h-9.22a7.08,7.08,0,0,1-7.06-7.06v-5.67a7.05,7.05,0,0,1,2.79-5.62,7.42,7.42,0,0,1,2.1-1.11,19.92,19.92,0,0,0,8.14,1.72,20.16,20.16,0,0,0,6.71-1.14,5.28,5.28,0,0,1,.8.53A7,7,0,0,1,442.44,524.67Z" transform="translate(-39.91 -90.44)" fill="none" stroke="#231f20" stroke-miterlimit="10"/>
        <path d="M439.65,519.15v9.1a5.62,5.62,0,0,1-5.6,5.6H427.5a5.63,5.63,0,0,1-5.61-5.6V517.6h1.36c.24.12.49.24.74.34a19.92,19.92,0,0,0,8.14,1.72,20.16,20.16,0,0,0,6.71-1.14l.56-.21a1.45,1.45,0,0,1,.24.74A.38.38,0,0,1,439.65,519.15Z" transform="translate(-39.91 -90.44)" fill="none" stroke="#231f20" stroke-miterlimit="10"/>
      </g>
      <g>
        <path d="M442.44,469.62v5.67a7,7,0,0,1-2.76,5.58l0,0v0a20.22,20.22,0,0,0-16.65.73,6,6,0,0,1-1.1-.69,7,7,0,0,1-2.8-5.61v-5.67a7.08,7.08,0,0,1,7.06-7.06h9.22A7.08,7.08,0,0,1,442.44,469.62Z" transform="translate(-39.91 -90.44)" fill="none" stroke="#231f20" stroke-miterlimit="10"/>
        <path d="M439.65,471.71v9.15a20.22,20.22,0,0,0-16.65.73c-.21.11-.42.22-.62.34a1.52,1.52,0,0,1-.48-1,.28.28,0,0,1,0-.09v-9.1a5.62,5.62,0,0,1,5.61-5.6h6.55A5.62,5.62,0,0,1,439.65,471.71Z" transform="translate(-39.91 -90.44)" fill="none" stroke="#231f20" stroke-miterlimit="10"/>
      </g>
      <g>
        <path d="M419.74,517.89a7.07,7.07,0,0,1-3.15,5.43l-4.72,3.12a7.1,7.1,0,0,1-9.79-2l-5.08-7.7a7.09,7.09,0,0,1,2-9.78l4.73-3.12a7.12,7.12,0,0,1,9,1,20.11,20.11,0,0,0,6.65,10.28A6.68,6.68,0,0,1,419.74,517.89Z" transform="translate(-39.91 -90.44)" fill="none" stroke="#231f20" stroke-miterlimit="10"/>
        <path d="M452,502.72a2.07,2.07,0,0,0-.4.13l.09,0,.25.17a20.14,20.14,0,0,1-10,14l-.58.31a21.33,21.33,0,0,1-2,.91l-.56.21a20.16,20.16,0,0,1-6.71,1.14,19.92,19.92,0,0,1-8.14-1.72c-.25-.1-.5-.22-.74-.34a19.31,19.31,0,0,1-3.33-2.07l-.56-.43a20.11,20.11,0,0,1-6.65-10.28c0-.11-.07-.24-.1-.36a19.91,19.91,0,0,1-.61-4.92,20.21,20.21,0,0,1,.29-3.41c0-.18.06-.35.1-.53a20.11,20.11,0,0,1,7.08-11.71c.41-.33.82-.65,1.26-.94a17.42,17.42,0,0,1,1.65-1c.2-.12.41-.23.62-.34a20.22,20.22,0,0,1,16.65-.73v0l0,0a20,20,0,0,1,2.14,1c0,.06,0,.12,0,.18l.08-.06L442,482a20.18,20.18,0,0,1,10.1,14.62l-.46.3.51.16a20.46,20.46,0,0,1,.16,2.5A19.68,19.68,0,0,1,452,502.72Z" transform="translate(-39.91 -90.44)" fill="none" stroke="#231f20" stroke-miterlimit="10"/>
        <path d="M419.74,517.89l-.08.06-7.59,5a5.61,5.61,0,0,1-7.76-1.59l-3.61-5.47a5.61,5.61,0,0,1,1.59-7.76l7.67-5.06,1.21-.8,1.44,2.18c0,.12.06.25.1.36a20.11,20.11,0,0,0,6.65,10.28l.56.43.18.28A1.55,1.55,0,0,1,419.74,517.89Z" transform="translate(-39.91 -90.44)" fill="none" stroke="#231f20" stroke-miterlimit="10"/>
      </g>
      <g>
        <path d="M462.54,493l-4.73,3.12a7.05,7.05,0,0,1-5.71.92l-.51-.16.46-.3A20.18,20.18,0,0,0,442,482l-.07.05-.08.06c0-.06,0-.12,0-.18a7,7,0,0,1,3.13-5.25l4.73-3.12a7.08,7.08,0,0,1,9.78,2l5.08,7.69A7.09,7.09,0,0,1,462.54,493Z" transform="translate(-39.91 -90.44)" fill="none" stroke="#231f20" stroke-miterlimit="10"/>
        <path d="M459.25,491.82l-7.2,4.76A20.18,20.18,0,0,0,442,482l7.52-5a5.63,5.63,0,0,1,7.77,1.59l3.61,5.47A5.62,5.62,0,0,1,459.25,491.82Z" transform="translate(-39.91 -90.44)" fill="none" stroke="#231f20" stroke-miterlimit="10"/>
      </g>
      <g>
        <path d="M419.47,483.89a20.11,20.11,0,0,0-7.08,11.71,6.83,6.83,0,0,1-2.46,1.51,7,7,0,0,1-6.24-.69l-4.76-3.06a7.09,7.09,0,0,1-2.11-9.77l5-7.74a7.08,7.08,0,0,1,9.76-2.12l4.76,3.07a7.09,7.09,0,0,1,3.14,7.09Z" transform="translate(-39.91 -90.44)" fill="none" stroke="#231f20" stroke-miterlimit="10"/>
        <path d="M420.73,483c-.44.29-.85.61-1.26.94a20.11,20.11,0,0,0-7.08,11.71c0,.18-.07.35-.1.53l-.31.47a1.54,1.54,0,0,1-2.05.51l-.09,0-7.64-4.93a5.63,5.63,0,0,1-1.68-7.75l3.55-5.5a5.62,5.62,0,0,1,7.75-1.68l7.72,5Z" transform="translate(-39.91 -90.44)" fill="none" stroke="#231f20" stroke-miterlimit="10"/>
      </g>
      <g>
        <path d="M464.72,516.37l-5,7.74a7.09,7.09,0,0,1-9.77,2.12l-4.76-3.07a7.06,7.06,0,0,1-3.21-5.39,3.86,3.86,0,0,1,0-.68,20.14,20.14,0,0,0,10-14l-.25-.17-.09,0a2.07,2.07,0,0,1,.4-.13,7.06,7.06,0,0,1,5.84.81l4.76,3.07A7.08,7.08,0,0,1,464.72,516.37Z" transform="translate(-39.91 -90.44)" fill="none" stroke="#231f20" stroke-miterlimit="10"/>
        <path d="M461,515.57l-3.55,5.5a5.61,5.61,0,0,1-7.74,1.68l-7.73-5-.59-.37.58-.31a20.14,20.14,0,0,0,10-14l7.39,4.75A5.64,5.64,0,0,1,461,515.57Z" transform="translate(-39.91 -90.44)" fill="none" stroke="#231f20" stroke-miterlimit="10"/>
      </g>
    </g>
    <g>
      <path d="M431.39,489.54a2.37,2.37,0,0,1,1.41.34.33.33,0,0,1,.05.12v.05s-1.06,2.49-3.17,7.49c-2.45,5.76-3.69,8.71-3.77,8.8a2.16,2.16,0,0,1-1.41.34h-.15a2.38,2.38,0,0,1-1.46-.34.26.26,0,0,1-.05-.12l.62-1.48c3.46-8.14,5.21-12.29,5.29-12.46s.21-.46.48-1.15a9.7,9.7,0,0,0-1.8,1.2,6.11,6.11,0,0,0-1.18,1.08,8.82,8.82,0,0,0-1.34,1.77.5.5,0,0,1-.49.32c-.35-.05-.52-.24-.52-.53a5.65,5.65,0,0,1,1.27-2,15,15,0,0,1,1.27-1.24q2.63-2.23,4.78-2.24Z" transform="translate(-39.91 -90.44)" fill="#231f20"/>
      <path d="M440,489.54a2.39,2.39,0,0,1,1.42.34.78.78,0,0,1,.05.12v.05s-1.06,2.49-3.17,7.49c-2.45,5.76-3.7,8.71-3.77,8.8a2.18,2.18,0,0,1-1.41.34h-.15a2.36,2.36,0,0,1-1.46-.34.18.18,0,0,1,0-.12c0-.07.24-.57.62-1.48,3.46-8.14,5.21-12.29,5.28-12.46a9.73,9.73,0,0,0,.48-1.15,10.41,10.41,0,0,0-1.8,1.2,6.55,6.55,0,0,0-1.17,1.08,8.93,8.93,0,0,0-1.35,1.77.48.48,0,0,1-.48.32c-.36-.05-.53-.24-.53-.53a5.92,5.92,0,0,1,1.28-2,15,15,0,0,1,1.27-1.24q2.63-2.23,4.78-2.24Z" transform="translate(-39.91 -90.44)" fill="#231f20"/>
    </g>
  </g>
  <g id="t12-s2-w1-a1-k0-lout-n13">
    <g>
      <rect x="448.55" y="36.21" width="45.31" height="45.31" fill="none" stroke="#231f20" stroke-miterlimit="10"/>
      <g id="table5">
        <g>
          <rect x="452" y="134.22" width="27.44" height="30.17" rx="12" transform="translate(575.11 -406.85) rotate(90)" fill="none" stroke="#231f20" stroke-miterlimit="10"/>
          <path d="M458,136.92h18.25a2.63,2.63,0,0,1,2.63,2.63v12.61a9.53,9.53,0,0,1-9.53,9.53h-1.83a9.53,9.53,0,0,1-9.53-9.53V136.92A0,0,0,0,1,458,136.92Z" transform="translate(577.82 -409.56) rotate(90)" fill="none" stroke="#231f20" stroke-miterlimit="10"/>
        </g>
        <g>
          <rect x="542.34" y="133.52" width="27.44" height="30.17" rx="12" transform="translate(367.55 614.23) rotate(-90)" fill="none" stroke="#231f20" stroke-miterlimit="10"/>
          <path d="M542.92,136.22h18.25a2.63,2.63,0,0,1,2.63,2.63v12.61a9.53,9.53,0,0,1-9.53,9.53h-1.83a9.53,9.53,0,0,1-9.53-9.53V136.22A0,0,0,0,1,542.92,136.22Z" transform="translate(364.84 611.52) rotate(-90)" fill="none" stroke="#231f20" stroke-miterlimit="10"/>
        </g>
      </g>
    </g>
    <g>
      <path d="M507.67,138.57a2.39,2.39,0,0,1,1.42.34.41.41,0,0,1,0,.12v.05L506,146.56c-2.45,5.76-3.7,8.72-3.77,8.81a2.21,2.21,0,0,1-1.42.34h-.14a2.42,2.42,0,0,1-1.47-.34.28.28,0,0,1,0-.12c0-.07.24-.57.62-1.49,3.46-8.13,5.21-12.28,5.28-12.45a9.73,9.73,0,0,0,.48-1.15,9.22,9.22,0,0,0-1.8,1.2,6.45,6.45,0,0,0-1.18,1.08,8.82,8.82,0,0,0-1.34,1.77.48.48,0,0,1-.48.31c-.36,0-.53-.24-.53-.52a5.9,5.9,0,0,1,1.27-1.95,15.37,15.37,0,0,1,1.28-1.25c1.75-1.48,3.33-2.23,4.77-2.23Z" transform="translate(-39.91 -90.44)" fill="#231f20"/>
      <path d="M522.26,139.89a2.71,2.71,0,0,1,.82,1.85v.07a.08.08,0,0,0,0,.05s0,0,0,0V142a4.77,4.77,0,0,1-1.08,2.64,14.58,14.58,0,0,1-1.27,1.37,23.56,23.56,0,0,1-2.28,1.87,46,46,0,0,1-6.29,3.75c-.75.36-1.39.67-1.92.89v0c.45.1,1.37.34,2.71.7a12.18,12.18,0,0,0,2.38.33,4.34,4.34,0,0,0,2-.6,2.83,2.83,0,0,0,.7-.57c.72-.87,1.22-1.3,1.51-1.3.08,0,.1.07.12.17a4,4,0,0,1-1.12,1.82,5.88,5.88,0,0,1-1.42,1.13,7.24,7.24,0,0,1-1,.58,9.42,9.42,0,0,1-3.84.91H512a11.47,11.47,0,0,1-3.48-.75,7.87,7.87,0,0,0-2-.31,2.53,2.53,0,0,0-1.65.6,2.4,2.4,0,0,1-1,.46c-.14,0-.24-.05-.24-.12,0-.34.72-1,2.11-2a20.09,20.09,0,0,1,4.25-1.94,22.15,22.15,0,0,0,3.56-1.8,22.94,22.94,0,0,0,2.92-2.09,12,12,0,0,0,1.68-1.71,5.19,5.19,0,0,0,1.2-3.26,3.39,3.39,0,0,0-1-2.57,2.44,2.44,0,0,0-1.61-.57h-.07a3.72,3.72,0,0,0-2.31,1,5.23,5.23,0,0,0-1,1.1,5.29,5.29,0,0,0-1,2.09,2,2,0,0,0,0,.41,1.11,1.11,0,0,0,.7,1.15,1.54,1.54,0,0,0,.6.1l.57-.08c.05,0,.08,0,.08.05v.07c0,.2-.36.34-1.13.44l-.46,0a2.75,2.75,0,0,1-2.69-1.34,2.93,2.93,0,0,1-.14-.87,4.07,4.07,0,0,1,1.42-2.81,8.6,8.6,0,0,1,1.48-1.12,11.43,11.43,0,0,1,5.55-1.35A5.37,5.37,0,0,1,522.26,139.89Z" transform="translate(-39.91 -90.44)" fill="#231f20"/>
    </g>
  </g>
  <g id="t13-s2-w1-a1-k0-lout-n12_14" data-name="t13-s2-w1-a1-k0-lout-n12,14">
    <g>
      <rect x="448.78" y="88.79" width="45.31" height="45.31" fill="none" stroke="#231f20" stroke-miterlimit="10"/>
      <g id="table5-2" data-name="table5">
        <g>
          <rect x="452.22" y="186.8" width="27.44" height="30.17" rx="12" transform="translate(627.92 -354.5) rotate(90)" fill="none" stroke="#231f20" stroke-miterlimit="10"/>
          <path d="M458.21,189.5h18.25a2.63,2.63,0,0,1,2.63,2.63v12.61a9.53,9.53,0,0,1-9.53,9.53h-1.83a9.53,9.53,0,0,1-9.53-9.53V189.5A0,0,0,0,1,458.21,189.5Z" transform="translate(630.62 -357.2) rotate(90)" fill="none" stroke="#231f20" stroke-miterlimit="10"/>
        </g>
        <g>
          <rect x="542.56" y="186.1" width="27.44" height="30.17" rx="12" transform="translate(315.19 667.03) rotate(-90)" fill="none" stroke="#231f20" stroke-miterlimit="10"/>
          <path d="M543.14,188.8h18.25a2.63,2.63,0,0,1,2.63,2.63V204a9.53,9.53,0,0,1-9.53,9.53h-1.83a9.53,9.53,0,0,1-9.53-9.53V188.8A0,0,0,0,1,543.14,188.8Z" transform="translate(312.49 664.33) rotate(-90)" fill="none" stroke="#231f20" stroke-miterlimit="10"/>
        </g>
      </g>
    </g>
    <g>
      <path d="M508.24,189.45a2.37,2.37,0,0,1,1.41.34.33.33,0,0,1,.05.12V190s-1.06,2.49-3.17,7.49c-2.45,5.76-3.7,8.71-3.77,8.81a2.19,2.19,0,0,1-1.41.33h-.15a2.47,2.47,0,0,1-1.46-.33.24.24,0,0,1-.05-.12c0-.08.24-.58.62-1.49,3.46-8.14,5.21-12.29,5.28-12.46a10.84,10.84,0,0,0,.49-1.15,9.7,9.7,0,0,0-1.8,1.2,6.11,6.11,0,0,0-1.18,1.08,8.93,8.93,0,0,0-1.35,1.77.48.48,0,0,1-.48.32c-.35,0-.52-.24-.52-.53a5.65,5.65,0,0,1,1.27-1.95,15,15,0,0,1,1.27-1.24q2.63-2.24,4.78-2.24Z" transform="translate(-39.91 -90.44)" fill="#231f20"/>
      <path d="M521.44,191.49a5.36,5.36,0,0,1,1.1,3.22,4.27,4.27,0,0,1-1.18,3,5.17,5.17,0,0,1-1.24.91,8.77,8.77,0,0,1-1.42.48l-.22,0a3.41,3.41,0,0,1,1.32,2.64A3.74,3.74,0,0,1,519,204a5.59,5.59,0,0,1-1.27,1.25,8,8,0,0,1-1.37.77,8.3,8.3,0,0,1-1.68.43,12.68,12.68,0,0,1-2,.14h-.45a5.7,5.7,0,0,1-4-1.44,3.89,3.89,0,0,1-1.22-2.76,2.4,2.4,0,0,1,1-2,3.72,3.72,0,0,1,2.09-.62h.14a2.07,2.07,0,0,1,1.54.55l0,.1v0c0,.15-.26.29-.76.43a1.58,1.58,0,0,0-.75.89,2.67,2.67,0,0,0-.14.89v.17a3.52,3.52,0,0,0,.55,1.85,2.36,2.36,0,0,0,2,1,4.16,4.16,0,0,0,2.57-1,3.46,3.46,0,0,0,1.15-2.48,3.51,3.51,0,0,0-1.89-3c-.24-.12-.34-.24-.34-.39v-.07c0-.14.1-.26.34-.36a.56.56,0,0,1,.26-.05h0c.1,0,.39.05.89.12a2,2,0,0,0,.39,0c1.34,0,2.32-.82,3-2.45a5.48,5.48,0,0,0,.26-1.66,5.19,5.19,0,0,0-1-3,2.08,2.08,0,0,0-1.58-.91h-.12a3,3,0,0,0-2.14,1.18,3.37,3.37,0,0,0-.84,2.08v.12a2.51,2.51,0,0,0,.56,1.47.94.94,0,0,0,.5.21.56.56,0,0,1,.36.15v0c0,.15-.55.24-1.63.31a2.54,2.54,0,0,1-2.52-1.29,1.87,1.87,0,0,1-.2-.89v0a3.76,3.76,0,0,1,1.66-2.86,8,8,0,0,1,4.87-1.42A5.1,5.1,0,0,1,521.44,191.49Z" transform="translate(-39.91 -90.44)" fill="#231f20"/>
    </g>
  </g>
  <g id="t14-s2-w1-a1-k0-lout-n13">
    <g>
      <rect x="448.78" y="142.2" width="45.31" height="45.31" fill="none" stroke="#231f20" stroke-miterlimit="10"/>
      <g id="table5-3" data-name="table5">
        <g>
          <rect x="452.22" y="240.21" width="27.44" height="30.17" rx="12" transform="translate(681.33 -301.09) rotate(90)" fill="none" stroke="#231f20" stroke-miterlimit="10"/>
          <path d="M458.21,242.91h18.25a2.63,2.63,0,0,1,2.63,2.63v12.61a9.53,9.53,0,0,1-9.53,9.53h-1.83a9.53,9.53,0,0,1-9.53-9.53V242.91A0,0,0,0,1,458.21,242.91Z" transform="translate(684.03 -303.79) rotate(90)" fill="none" stroke="#231f20" stroke-miterlimit="10"/>
        </g>
        <g>
          <rect x="542.56" y="239.51" width="27.44" height="30.17" rx="12" transform="translate(261.78 720.44) rotate(-90)" fill="none" stroke="#231f20" stroke-miterlimit="10"/>
          <path d="M543.14,242.22h18.25a2.63,2.63,0,0,1,2.63,2.63v12.61A9.53,9.53,0,0,1,554.5,267h-1.83a9.53,9.53,0,0,1-9.53-9.53V242.22A0,0,0,0,1,543.14,242.22Z" transform="translate(259.08 717.74) rotate(-90)" fill="none" stroke="#231f20" stroke-miterlimit="10"/>
        </g>
      </g>
    </g>
    <g>
      <path d="M509.14,243.56a2.39,2.39,0,0,1,1.42.34.78.78,0,0,1,.05.12v0s-1.06,2.49-3.17,7.49c-2.45,5.76-3.7,8.71-3.77,8.8a2.18,2.18,0,0,1-1.41.34h-.15a2.38,2.38,0,0,1-1.46-.34.18.18,0,0,1,0-.12c0-.07.24-.57.62-1.48,3.46-8.14,5.21-12.29,5.28-12.46a9.73,9.73,0,0,0,.48-1.15,10.41,10.41,0,0,0-1.8,1.2,6.55,6.55,0,0,0-1.17,1.08,8.93,8.93,0,0,0-1.35,1.77.48.48,0,0,1-.48.32c-.36-.05-.52-.24-.52-.53a5.65,5.65,0,0,1,1.27-2,15,15,0,0,1,1.27-1.24q2.63-2.24,4.78-2.24Z" transform="translate(-39.91 -90.44)" fill="#231f20"/>
      <path d="M512.17,260.36a.16.16,0,0,1,0-.14L513.9,256h-6.17c-.17,0-.27-.14-.29-.43a3.66,3.66,0,0,1,1-1.9c.6-.79,1.87-2.23,3.84-4.29,1.75-1.78,2.76-2.79,3.09-3q3-2.76,5.33-2.76a2.62,2.62,0,0,1,1.2.29.36.36,0,0,1,.17.24l-4.22,10h1.65c.17,0,.27.12.32.34a2.35,2.35,0,0,1-.39,1.15,1,1,0,0,1-.65.43H517q-1.77,4.21-1.87,4.39c-.19.22-.67.34-1.49.34A2.36,2.36,0,0,1,512.17,260.36Zm6.26-15.07a17.81,17.81,0,0,0-2.64,2.07,76.35,76.35,0,0,0-6.19,6.69h5.11Z" transform="translate(-39.91 -90.44)" fill="#231f20"/>
    </g>
  </g>
</svg>
